{
  "accessors": [
    {
      "bufferView": 2,
      "componentType": 5126,
      "count": 11778,
      "max": [
        32.314788818359375,
        40.39437484741211,
        73.87962341308594
      ],
      "min": [
        -31.13819122314453,
        -41.416358947753906,
        16.003496170043945
      ],
      "type": "VEC3"
    },
    {
      "bufferView": 2,
      "byteOffset": 141336,
      "componentType": 5126,
      "count": 11778,
      "type": "VEC3"
    },
    {
      "bufferView": 3,
      "componentType": 5126,
      "count": 11778,
      "type": "VEC4"
    },
    {
      "bufferView": 1,
      "componentType": 5126,
      "count": 11778,
      "type": "VEC2"
    },
    {
      "bufferView": 0,
      "componentType": 5125,
      "count": 63648,
      "type": "SCALAR"
    },
    {
      "bufferView": 2,
      "byteOffset": 282672,
      "componentType": 5126,
      "count": 65532,
      "max": [
        30.358884811401367,
        37.61070251464844,
        73.05416870117188
      ],
      "min": [
        -28.820165634155273,
        -38.474853515625,
        0.19258099794387817
      ],
      "type": "VEC3"
    },
    {
      "bufferView": 2,
      "byteOffset": 1069056,
      "componentType": 5126,
      "count": 65532,
      "type": "VEC3"
    },
    {
      "bufferView": 3,
      "byteOffset": 188448,
      "componentType": 5126,
      "count": 65532,
      "type": "VEC4"
    },
    {
      "bufferView": 1,
      "byteOffset": 94224,
      "componentType": 5126,
      "count": 65532,
      "type": "VEC2"
    },
    {
      "bufferView": 0,
      "byteOffset": 254592,
      "componentType": 5125,
      "count": 314085,
      "type": "SCALAR"
    },
    {
      "bufferView": 2,
      "byteOffset": 1855440,
      "componentType": 5126,
      "count": 65532,
      "max": [
        30.374147415161133,
        38.055625915527344,
        73.08163452148438
      ],
      "min": [
        -28.819625854492188,
        -38.47502899169922,
        0.1023859977722168
      ],
      "type": "VEC3"
    },
    {
      "bufferView": 2,
      "byteOffset": 2641824,
      "componentType": 5126,
      "count": 65532,
      "type": "VEC3"
    },
    {
      "bufferView": 3,
      "byteOffset": 1236960,
      "componentType": 5126,
      "count": 65532,
      "type": "VEC4"
    },
    {
      "bufferView": 1,
      "byteOffset": 618480,
      "componentType": 5126,
      "count": 65532,
      "type": "VEC2"
    },
    {
      "bufferView": 0,
      "byteOffset": 1510932,
      "componentType": 5125,
      "count": 293811,
      "type": "SCALAR"
    },
    {
      "bufferView": 2,
      "byteOffset": 3428208,
      "componentType": 5126,
      "count": 18771,
      "max": [
        24.350858688354492,
        37.560882568359375,
        73.0196533203125
      ],
      "min": [
        -24.7869873046875,
        -30.12826156616211,
        12.857521057128906
      ],
      "type": "VEC3"
    },
    {
      "bufferView": 2,
      "byteOffset": 3653460,
      "componentType": 5126,
      "count": 18771,
      "type": "VEC3"
    },
    {
      "bufferView": 3,
      "byteOffset": 2285472,
      "componentType": 5126,
      "count": 18771,
      "type": "VEC4"
    },
    {
      "bufferView": 1,
      "byteOffset": 1142736,
      "componentType": 5126,
      "count": 18771,
      "type": "VEC2"
    },
    {
      "bufferView": 0,
      "byteOffset": 2686176,
      "componentType": 5125,
      "count": 73599,
      "type": "SCALAR"
    },
    {
      "bufferView": 2,
      "byteOffset": 3878712,
      "componentType": 5126,
      "count": 12787,
      "max": [
        32.33328628540039,
        40.412113189697266,
        73.89752197265625
      ],
      "min": [
        -31.15524673461914,
        -41.4239616394043,
        47.36712646484375
      ],
      "type": "VEC3"
    },
    {
      "bufferView": 2,
      "byteOffset": 4032156,
      "componentType": 5126,
      "count": 12787,
      "type": "VEC3"
    },
    {
      "bufferView": 3,
      "byteOffset": 2585808,
      "componentType": 5126,
      "count": 12787,
      "type": "VEC4"
    },
    {
      "bufferView": 1,
      "byteOffset": 1292904,
      "componentType": 5126,
      "count": 12787,
      "type": "VEC2"
    },
    {
      "bufferView": 0,
      "byteOffset": 2980572,
      "componentType": 5125,
      "count": 66984,
      "type": "SCALAR"
    }
  ],
  "asset": {
    "generator": "fab-model-conversion",
    "version": "2.0"
  },
  "bufferViews": [
    {
      "buffer": 0,
      "byteLength": 3248508,
      "target": 34963
    },
    {
      "buffer": 0,
      "byteLength": 1395200,
      "byteOffset": 3248508,
      "byteStride": 8,
      "target": 34962
    },
    {
      "buffer": 0,
      "byteLength": 4185600,
      "byteOffset": 4643708,
      "byteStride": 12,
      "target": 34962
    },
    {
      "buffer": 0,
      "byteLength": 2790400,
      "byteOffset": 8829308,
      "byteStride": 16,
      "target": 34962
    }
  ],
  "buffers": [
    {
      "byteLength": 11619708,
      "uri": "scene.bin"
    }
  ],
  "images": [
    {
      "uri": "textures/13___Default_baseColor.jpeg"
    },
    {
      "uri": "textures/13___Default_metallicRoughness.png"
    },
    {
      "uri": "textures/13___Default_normal.jpeg"
    },
    {
      "uri": "textures/Metal1_baseColor.jpeg"
    },
    {
      "uri": "textures/Metal1_metallicRoughness.png"
    },
    {
      "uri": "textures/Metal1_normal.jpeg"
    }
  ],
  "materials": [
    {
      "doubleSided": true,
      "name": "13___Default",
      "normalTexture": {
        "index": 2
      },
      "occlusionTexture": {
        "index": 1
      },
      "pbrMetallicRoughness": {
        "baseColorTexture": {
          "index": 0
        },
        "metallicRoughnessTexture": {
          "index": 1
        }
      }
    },
    {
      "doubleSided": true,
      "emissiveTexture": {
        "index": 3
      },
      "name": "Metal1",
      "normalTexture": {
        "index": 5
      },
      "occlusionTexture": {
        "index": 4
      },
      "pbrMetallicRoughness": {
        "baseColorTexture": {
          "index": 3
        },
        "metallicRoughnessTexture": {
          "index": 4
        }
      }
    },
    {
      "doubleSided": true,
      "name": "Scur",
      "normalTexture": {
        "index": 2
      },
      "occlusionTexture": {
        "index": 1
      },
      "pbrMetallicRoughness": {
        "baseColorTexture": {
          "index": 0
        },
        "metallicRoughnessTexture": {
          "index": 1
        }
      }
    }
  ],
  "meshes": [
    {
      "name": "Object_0",
      "primitives": [
        {
          "attributes": {
            "NORMAL": 1,
            "POSITION": 0,
            "TANGENT": 2,
            "TEXCOORD_0": 3
          },
          "indices": 4,
          "material": 0,
          "mode": 4
        }
      ]
    },
    {
      "name": "Object_1",
      "primitives": [
        {
          "attributes": {
            "NORMAL": 6,
            "POSITION": 5,
            "TANGENT": 7,
            "TEXCOORD_0": 8
          },
          "indices": 9,
          "material": 1,
          "mode": 4
        }
      ]
    },
    {
      "name": "Object_2",
      "primitives": [
        {
          "attributes": {
            "NORMAL": 11,
            "POSITION": 10,
            "TANGENT": 12,
            "TEXCOORD_0": 13
          },
          "indices": 14,
          "material": 1,
          "mode": 4
        }
      ]
    },
    {
      "name": "Object_3",
      "primitives": [
        {
          "attributes": {
            "NORMAL": 16,
            "POSITION": 15,
            "TANGENT": 17,
            "TEXCOORD_0": 18
          },
          "indices": 19,
          "material": 1,
          "mode": 4
        }
      ]
    },
    {
      "name": "Object_4",
      "primitives": [
        {
          "attributes": {
            "NORMAL": 21,
            "POSITION": 20,
            "TANGENT": 22,
            "TEXCOORD_0": 23
          },
          "indices": 24,
          "material": 2,
          "mode": 4
        }
      ]
    }
  ],
  "nodes": [
    {
      "children": [
        1
      ],
      "matrix": [
        1.0,
        0.0,
        0.0,
        0.0,
        0.0,
        2.220446049250313e-16,
        -1.0,
        0.0,
        0.0,
        1.0,
        2.220446049250313e-16,
        0.0,
        0.0,
        0.0,
        0.0,
        1.0
      ],
      "name": "Sketchfab_model"
    },
    {
      "children": [
        2,
        3,
        4,
        5,
        6
      ],
      "name": "Dondolo Ferro Bianco.obj.cleaner.materialmerger.gles"
    },
    {
      "mesh": 0,
      "name": "Object_2"
    },
    {
      "mesh": 1,
      "name": "Object_3"
    },
    {
      "mesh": 2,
      "name": "Object_4"
    },
    {
      "mesh": 3,
      "name": "Object_5"
    },
    {
      "mesh": 4,
      "name": "Object_6"
    }
  ],
  "samplers": [
    {
      "magFilter": 9729,
      "minFilter": 9987,
      "wrapS": 10497,
      "wrapT": 10497
    }
  ],
  "scene": 0,
  "scenes": [
    {
      "name": "Sketchfab_Scene",
      "nodes": [
        0
      ]
    }
  ],
  "textures": [
    {
      "sampler": 0,
      "source": 0
    },
    {
      "sampler": 0,
      "source": 1
    },
    {
      "sampler": 0,
      "source": 2
    },
    {
      "sampler": 0,
      "source": 3
    },
    {
      "sampler": 0,
      "source": 4
    },
    {
      "sampler": 0,
      "source": 5
    }
  ]
}
